<svg xmlns="http://www.w3.org/2000/svg" viewBox="0 0 64 64" fill="none">
    <defs>
        <linearGradient id="g" x1="0" y1="0" x2="64" y2="64" gradientUnits="userSpaceOnUse">
            <stop offset="0" stop-color="#7a7df0"/>
            <stop offset="1" stop-color="#4a4ccb"/>
        </linearGradient>
    </defs>
    <path d="M8 18a4 4 0 0 1 4-4h40a4 4 0 0 1 4 4v8a6 6 0 0 0 0 12v8a4 4 0 0 1-4 4H12a4 4 0 0 1-4-4v-8a6 6 0 0 0 0-12v-8z"
          fill="url(#g)"/>
    <circle cx="22" cy="32" r="2.5" fill="#fff"/>
    <circle cx="32" cy="32" r="2.5" fill="#fff"/>
    <circle cx="42" cy="32" r="2.5" fill="#fff"/>
</svg>
